<?xml version="1.0" encoding="UTF-8"?>
<svg xmlns="http://www.w3.org/2000/svg" xmlns:xlink="http://www.w3.org/1999/xlink" width="296.214233pt" height="433.191559pt" viewBox="0 0 296.214233 433.191559" version="1.1">
<defs>
<clipPath id="clip1">
  <path d="M 278.359375 0 C 278.359375 0 273.378906 35.765625 235.074219 67.519531 C 196.753906 99.257812 101.523438 131.359375 38.214844 209.769531 C -25.085938 288.171875 5.675781 365.195312 21.910156 388.207031 C 31.230469 401.414062 45.355469 404.542969 55.710938 404.792969 C 51.875 386.765625 49.449219 366.777344 50.484375 345.976562 C 58.808594 262.601562 124.132812 209.902344 134.570312 200.09375 C 140.253906 195.027344 150.863281 186.578125 163.730469 177.222656 C 176.9375 168.03125 190.855469 157.601562 203.609375 145.457031 C 229.210938 122.203125 249.757812 98.761719 249.699219 98.761719 C 249.75 98.761719 232.246094 124.539062 209 150.835938 C 197.863281 164.113281 183.738281 177.214844 171.714844 187.265625 C 159.816406 197.6875 150.125 206.605469 144.671875 211.472656 C 139.34375 216.429688 122.171875 231.355469 105.746094 255.453125 C 97.457031 267.695312 89.898438 281.441406 82.59375 298.195312 C 75.496094 312.671875 72.019531 329.644531 71.855469 346.757812 C 71.59375 376.625 79.6875 405.816406 88.066406 428.429688 C 99.3125 434.253906 117 436.160156 144.671875 425.835938 C 166.742188 413.605469 185.714844 399.628906 202.0625 384.398438 L 175.921875 349.96875 L 224.789062 360.480469 C 241.109375 341.050781 253.949219 320.148438 263.988281 298.566406 L 216.5 284.246094 L 275.914062 268.8125 C 286.308594 238.632812 291.9375 207.804688 294.5 178.300781 L 247.316406 186.503906 L 246.835938 186.703125 L 247.117188 186.53125 L 241.972656 187.429688 L 296.015625 151.550781 C 298.417969 67.390625 278.359375 0 278.359375 0 "/>
</clipPath>
<clipPath id="clip3">
  <path d="M 278.359375 0 C 278.359375 0 273.378906 35.765625 235.074219 67.519531 C 196.753906 99.257812 101.523438 131.359375 38.214844 209.769531 C -25.085938 288.171875 5.675781 365.195312 21.910156 388.207031 C 31.230469 401.414062 45.355469 404.542969 55.710938 404.792969 C 51.875 386.765625 49.449219 366.777344 50.484375 345.976562 C 58.808594 262.601562 124.132812 209.902344 134.570312 200.09375 C 140.253906 195.027344 150.863281 186.578125 163.730469 177.222656 C 176.9375 168.03125 190.855469 157.601562 203.609375 145.457031 C 229.210938 122.203125 249.757812 98.761719 249.699219 98.761719 C 249.75 98.761719 232.246094 124.539062 209 150.835938 C 197.863281 164.113281 183.738281 177.214844 171.714844 187.265625 C 159.816406 197.6875 150.125 206.605469 144.671875 211.472656 C 139.34375 216.429688 122.171875 231.355469 105.746094 255.453125 C 97.457031 267.695312 89.898438 281.441406 82.59375 298.195312 C 75.496094 312.671875 72.019531 329.644531 71.855469 346.757812 C 71.59375 376.625 79.6875 405.816406 88.066406 428.429688 C 99.3125 434.253906 117 436.160156 144.671875 425.835938 C 166.742188 413.605469 185.714844 399.628906 202.0625 384.398438 L 175.921875 349.96875 L 224.789062 360.480469 C 241.109375 341.050781 253.949219 320.148438 263.988281 298.566406 L 216.5 284.246094 L 275.914062 268.8125 C 286.308594 238.632812 291.9375 207.804688 294.5 178.300781 L 247.316406 186.503906 L 246.835938 186.703125 L 247.117188 186.53125 L 241.972656 187.429688 L 296.015625 151.550781 C 298.417969 67.390625 278.359375 0 278.359375 0 "/>
</clipPath>
<clipPath id="clip2">
  <rect width="297" height="434"/>
</clipPath>
<g id="surface5" clip-path="url(#clip2)">
<g clip-path="url(#clip3)" clip-rule="nonzero">
<path style=" stroke:none;fill-rule:nonzero;fill:rgb(64%,64%,64%);fill-opacity:1;" d="M 362.367188 422.84375 L 289.136719 -45.234375 L -66.152344 10.347656 L 7.078125 478.425781 Z M 362.367188 422.84375 "/>
</g>
</g>
<clipPath id="clip4">
  <path d="M 38.230469 209.777344 C 95.171875 139.265625 177.949219 106.183594 221.882812 77.152344 C 183.992188 111.71875 97.214844 150.738281 44.847656 231.523438 C -2.421875 304.449219 20.851562 371.863281 39.757812 401.867188 C 33.316406 399.46875 26.941406 395.296875 21.929688 388.214844 C 5.691406 365.207031 -25.070312 288.179688 38.230469 209.777344 "/>
</clipPath>
<clipPath id="clip6">
  <path d="M 38.230469 132.777344 C 95.171875 62.265625 177.949219 29.183594 221.882812 0.152344 C 183.992188 34.71875 97.214844 73.738281 44.847656 154.523438 C -2.421875 227.449219 20.851562 294.863281 39.757812 324.867188 C 33.316406 322.46875 26.941406 318.296875 21.929688 311.214844 C 5.691406 288.207031 -25.070312 211.179688 38.230469 132.777344 "/>
</clipPath>
<clipPath id="clip5">
  <rect width="222" height="325"/>
</clipPath>
<g id="surface7" clip-path="url(#clip5)">
<g clip-path="url(#clip6)" clip-rule="nonzero">
<rect x="0" y="0" width="222" height="325" style="fill:rgb(59%,59%,59%);fill-opacity:1;stroke:none;"/>
</g>
</g>
</defs>
<g id="surface1">
<g clip-path="url(#clip1)" clip-rule="nonzero">
<use xlink:href="#surface5"/>
</g>
<g clip-path="url(#clip4)" clip-rule="nonzero">
<use xlink:href="#surface7" transform="matrix(1,0,0,1,0,77)"/>
</g>
</g>
</svg>
